<svg width="150" height="20" viewBox="0 0 150 20" fill="none" xmlns="http://www.w3.org/2000/svg">
<g id="logo">
<g id="Group 8">
<path id="Path 5" fill-rule="evenodd" clip-rule="evenodd" d="M6.66819 0L0 19.704H3.69511L10.3633 0H6.66819Z" fill="url(#paint0_linear_0_1269)"/>
<path id="Path 5 Copy" opacity="0.5" fill-rule="evenodd" clip-rule="evenodd" d="M11.2166 0L4.5484 19.704H8.24351L14.9117 0H11.2166Z" fill="url(#paint1_linear_0_1269)"/>
<path id="Path 5 Copy 2" opacity="0.15" fill-rule="evenodd" clip-rule="evenodd" d="M15.765 0L9.0968 19.704H12.7919L19.4601 0H15.765Z" fill="url(#paint2_linear_0_1269)"/>
</g>
<path id="Receive money in any" d="M23.5182 16V4.432C23.5769 4.432 23.7396 4.432 24.0062 4.432C24.2782 4.432 24.5956 4.432 24.9582 4.432C25.3262 4.432 25.6916 4.43467 26.0542 4.44C26.4222 4.44 26.7289 4.44267 26.9742 4.448C28.3769 4.48 29.5209 4.73067 30.4062 5.2C31.2916 5.66933 31.9396 6.32533 32.3502 7.168C32.7662 8.01067 32.9742 9.008 32.9742 10.16C32.9742 11.36 32.7556 12.3973 32.3182 13.272C31.8809 14.1413 31.2116 14.8133 30.3102 15.288C29.4142 15.7627 28.2756 16 26.8942 16H23.5182ZM25.8702 14.112H26.9422C27.6036 14.112 28.2036 13.984 28.7422 13.728C29.2862 13.472 29.7209 13.0533 30.0462 12.472C30.3716 11.8907 30.5342 11.1147 30.5342 10.144C30.5342 9.24267 30.3902 8.512 30.1022 7.952C29.8142 7.38667 29.4036 6.97333 28.8702 6.712C28.3369 6.45067 27.7049 6.32 26.9742 6.32H25.8702V14.112ZM34.4521 16V7.728H36.7001V9.688C36.8335 9.26667 37.0201 8.89867 37.2601 8.584C37.5055 8.264 37.8015 8.016 38.1481 7.84C38.4948 7.65867 38.8868 7.568 39.3241 7.568C39.3988 7.568 39.4681 7.57333 39.5321 7.584C39.6015 7.58933 39.6521 7.6 39.6841 7.616V9.84C39.6361 9.81867 39.5775 9.80533 39.5081 9.8C39.4441 9.79467 39.3855 9.78933 39.3321 9.784C38.8735 9.74667 38.4815 9.76 38.1561 9.824C37.8308 9.888 37.5668 9.99733 37.3641 10.152C37.1615 10.3067 37.0148 10.496 36.9241 10.72C36.8335 10.944 36.7881 11.1947 36.7881 11.472V16H34.4521ZM44.5446 16.16C43.7232 16.16 43.0006 15.9893 42.3766 15.648C41.7579 15.3013 41.2752 14.8133 40.9286 14.184C40.5819 13.5547 40.4086 12.8133 40.4086 11.96C40.4086 11.1333 40.5659 10.3893 40.8806 9.728C41.2006 9.06133 41.6592 8.536 42.2566 8.152C42.8539 7.76267 43.5766 7.568 44.4246 7.568C45.2672 7.568 45.9739 7.74667 46.5446 8.104C47.1152 8.456 47.5472 8.94933 47.8406 9.584C48.1339 10.2133 48.2806 10.9413 48.2806 11.768V12.4H42.7206C42.7206 12.8213 42.7899 13.1893 42.9286 13.504C43.0672 13.8133 43.2672 14.0533 43.5286 14.224C43.7952 14.3893 44.1152 14.472 44.4886 14.472C44.8886 14.472 45.2379 14.3867 45.5366 14.216C45.8352 14.0453 46.0459 13.7653 46.1686 13.376H48.2726C48.1766 13.9627 47.9419 14.464 47.5686 14.88C47.1952 15.296 46.7419 15.6133 46.2086 15.832C45.6752 16.0507 45.1206 16.16 44.5446 16.16ZM42.7206 11.008H46.0966C46.0966 10.6773 46.0326 10.3733 45.9046 10.096C45.7819 9.81867 45.5952 9.6 45.3446 9.44C45.0992 9.28 44.7899 9.2 44.4166 9.2C44.0592 9.2 43.7526 9.288 43.4966 9.464C43.2459 9.63467 43.0512 9.85867 42.9126 10.136C42.7792 10.4133 42.7152 10.704 42.7206 11.008ZM52.0867 16.16C51.564 16.16 51.0894 16.0613 50.6627 15.864C50.2414 15.6667 49.908 15.3813 49.6627 15.008C49.4174 14.6293 49.2947 14.1707 49.2947 13.632C49.2947 12.7253 49.6334 12.0373 50.3107 11.568C50.988 11.0933 52.0574 10.848 53.5187 10.832L54.5587 10.816V10.32C54.5587 9.94133 54.4467 9.65067 54.2227 9.448C54.004 9.24 53.66 9.13867 53.1907 9.144C52.8547 9.14933 52.532 9.22933 52.2227 9.384C51.9187 9.53867 51.708 9.808 51.5907 10.192H49.6467C49.6787 9.59467 49.852 9.104 50.1667 8.72C50.4867 8.33067 50.916 8.04267 51.4547 7.856C51.9934 7.664 52.6094 7.568 53.3027 7.568C54.1454 7.568 54.8227 7.67467 55.3347 7.888C55.8467 8.096 56.2174 8.39733 56.4467 8.792C56.6814 9.18133 56.7987 9.64533 56.7987 10.184V16H54.8467L54.6547 14.576C54.372 15.1733 54.0174 15.5867 53.5907 15.816C53.1694 16.0453 52.668 16.16 52.0867 16.16ZM52.8787 14.624C53.0867 14.624 53.2894 14.5867 53.4867 14.512C53.6894 14.432 53.8707 14.328 54.0307 14.2C54.1907 14.0667 54.316 13.9173 54.4067 13.752C54.5027 13.5867 54.5534 13.416 54.5587 13.24V12.016L53.7187 12.032C53.3294 12.0373 52.9667 12.0853 52.6307 12.176C52.2947 12.2613 52.0227 12.4027 51.8147 12.6C51.612 12.7973 51.5107 13.064 51.5107 13.4C51.5107 13.784 51.6414 14.0853 51.9027 14.304C52.1694 14.5173 52.4947 14.624 52.8787 14.624ZM58.4075 16V7.728H60.6955V8.896C60.9462 8.53333 61.2822 8.22133 61.7035 7.96C62.1302 7.69867 62.6662 7.568 63.3115 7.568C63.5942 7.568 63.8822 7.61867 64.1755 7.72C64.4688 7.82133 64.7435 7.97067 64.9995 8.168C65.2608 8.36 65.4715 8.60267 65.6315 8.896C65.8982 8.51733 66.2475 8.20267 66.6795 7.952C67.1168 7.696 67.6022 7.568 68.1355 7.568C68.4448 7.568 68.7568 7.61867 69.0715 7.72C69.3915 7.82133 69.6848 7.98667 69.9515 8.216C70.2182 8.44533 70.4315 8.752 70.5915 9.136C70.7568 9.51467 70.8395 9.984 70.8395 10.544V16H68.5035V10.832C68.5035 10.5013 68.4368 10.2373 68.3035 10.04C68.1755 9.83733 68.0102 9.69333 67.8075 9.608C67.6102 9.51733 67.3995 9.472 67.1755 9.472C66.9675 9.472 66.7568 9.51467 66.5435 9.6C66.3302 9.68 66.1488 9.81067 65.9995 9.992C65.8502 10.1733 65.7755 10.4107 65.7755 10.704V16H63.4475V10.624C63.4475 10.3733 63.3808 10.1627 63.2475 9.992C63.1142 9.82133 62.9462 9.69333 62.7435 9.608C62.5462 9.51733 62.3435 9.472 62.1355 9.472C61.9222 9.472 61.7088 9.51733 61.4955 9.608C61.2822 9.69333 61.1035 9.82933 60.9595 10.016C60.8155 10.1973 60.7435 10.4267 60.7435 10.704V16H58.4075ZM78.2199 16L74.8119 4.432H77.0999L79.2519 12.072L81.4039 4.432H83.0919L85.2679 12.072L87.4199 4.432H89.6999L86.2839 16H84.4199L82.2439 8.44L80.0519 16H78.2199ZM93.4396 16.16C92.6289 16.16 91.9223 15.9867 91.3196 15.64C90.7223 15.2933 90.2583 14.8027 89.9276 14.168C89.6023 13.5333 89.4396 12.7813 89.4396 11.912C89.4396 11.0427 89.6023 10.2827 89.9276 9.632C90.2583 8.98133 90.7223 8.47467 91.3196 8.112C91.9223 7.74933 92.6316 7.568 93.4476 7.568C94.2636 7.568 94.9703 7.74667 95.5676 8.104C96.1649 8.456 96.6263 8.95733 96.9516 9.608C97.2769 10.2587 97.4396 11.0267 97.4396 11.912C97.4396 12.744 97.2796 13.48 96.9596 14.12C96.6449 14.7547 96.1889 15.2533 95.5916 15.616C94.9996 15.9787 94.2823 16.16 93.4396 16.16ZM93.4476 14.424C93.8583 14.424 94.1889 14.304 94.4396 14.064C94.6903 13.824 94.8716 13.5093 94.9836 13.12C95.0956 12.7253 95.1516 12.296 95.1516 11.832C95.1516 11.3947 95.1009 10.9813 94.9996 10.592C94.8983 10.2027 94.7223 9.888 94.4716 9.648C94.2209 9.408 93.8796 9.288 93.4476 9.288C93.0369 9.288 92.7036 9.40267 92.4476 9.632C92.1969 9.856 92.0129 10.1627 91.8956 10.552C91.7783 10.936 91.7196 11.3627 91.7196 11.832C91.7196 12.264 91.7729 12.68 91.8796 13.08C91.9863 13.4747 92.1649 13.7973 92.4156 14.048C92.6663 14.2987 93.0103 14.424 93.4476 14.424ZM101.389 16.144C100.781 16.144 100.298 16.072 99.941 15.928C99.5837 15.784 99.3197 15.5947 99.149 15.36C98.9783 15.12 98.869 14.856 98.821 14.568C98.773 14.2747 98.749 13.9787 98.749 13.68V4.112H101.037V13.392C101.037 13.696 101.101 13.944 101.229 14.136C101.362 14.3227 101.61 14.4373 101.973 14.48L102.365 14.504V15.944C102.205 15.9973 102.042 16.0427 101.877 16.08C101.712 16.1227 101.549 16.144 101.389 16.144ZM103.651 18.576V7.728H105.995L106.003 8.92C106.125 8.72267 106.275 8.544 106.451 8.384C106.632 8.21867 106.832 8.07467 107.051 7.952C107.269 7.82933 107.507 7.736 107.763 7.672C108.019 7.60267 108.288 7.568 108.571 7.568C109.184 7.568 109.731 7.72 110.211 8.024C110.691 8.32267 111.067 8.78667 111.339 9.416C111.616 10.04 111.755 10.8347 111.755 11.8C111.755 12.8027 111.605 13.6267 111.307 14.272C111.013 14.912 110.608 15.3867 110.091 15.696C109.573 16.0053 108.989 16.16 108.339 16.16C108.072 16.16 107.821 16.1227 107.587 16.048C107.352 15.9787 107.133 15.88 106.931 15.752C106.733 15.624 106.555 15.4773 106.395 15.312C106.24 15.1413 106.104 14.9573 105.987 14.76V18.576H103.651ZM107.779 14.448C108.285 14.448 108.709 14.2373 109.051 13.816C109.397 13.3947 109.571 12.728 109.571 11.816C109.571 11.016 109.405 10.392 109.075 9.944C108.749 9.49067 108.317 9.264 107.779 9.264C107.176 9.264 106.725 9.50933 106.427 10C106.133 10.4853 105.987 11.0907 105.987 11.816C105.987 12.28 106.051 12.712 106.179 13.112C106.312 13.512 106.509 13.8347 106.771 14.08C107.037 14.3253 107.373 14.448 107.779 14.448ZM115.493 16.16C114.97 16.16 114.496 16.0613 114.069 15.864C113.648 15.6667 113.314 15.3813 113.069 15.008C112.824 14.6293 112.701 14.1707 112.701 13.632C112.701 12.7253 113.04 12.0373 113.717 11.568C114.394 11.0933 115.464 10.848 116.925 10.832L117.965 10.816V10.32C117.965 9.94133 117.853 9.65067 117.629 9.448C117.41 9.24 117.066 9.13867 116.597 9.144C116.261 9.14933 115.938 9.22933 115.629 9.384C115.325 9.53867 115.114 9.808 114.997 10.192H113.053C113.085 9.59467 113.258 9.104 113.573 8.72C113.893 8.33067 114.322 8.04267 114.861 7.856C115.4 7.664 116.016 7.568 116.709 7.568C117.552 7.568 118.229 7.67467 118.741 7.888C119.253 8.096 119.624 8.39733 119.853 8.792C120.088 9.18133 120.205 9.64533 120.205 10.184V16H118.253L118.061 14.576C117.778 15.1733 117.424 15.5867 116.997 15.816C116.576 16.0453 116.074 16.16 115.493 16.16ZM116.285 14.624C116.493 14.624 116.696 14.5867 116.893 14.512C117.096 14.432 117.277 14.328 117.437 14.2C117.597 14.0667 117.722 13.9173 117.813 13.752C117.909 13.5867 117.96 13.416 117.965 13.24V12.016L117.125 12.032C116.736 12.0373 116.373 12.0853 116.037 12.176C115.701 12.2613 115.429 12.4027 115.221 12.6C115.018 12.7973 114.917 13.064 114.917 13.4C114.917 13.784 115.048 14.0853 115.309 14.304C115.576 14.5173 115.901 14.624 116.285 14.624ZM121.814 18.576V7.728H124.158L124.166 8.92C124.288 8.72267 124.438 8.544 124.614 8.384C124.795 8.21867 124.995 8.07467 125.214 7.952C125.432 7.82933 125.67 7.736 125.926 7.672C126.182 7.60267 126.451 7.568 126.734 7.568C127.347 7.568 127.894 7.72 128.374 8.024C128.854 8.32267 129.23 8.78667 129.502 9.416C129.779 10.04 129.918 10.8347 129.918 11.8C129.918 12.8027 129.768 13.6267 129.47 14.272C129.176 14.912 128.771 15.3867 128.254 15.696C127.736 16.0053 127.152 16.16 126.502 16.16C126.235 16.16 125.984 16.1227 125.75 16.048C125.515 15.9787 125.296 15.88 125.094 15.752C124.896 15.624 124.718 15.4773 124.558 15.312C124.403 15.1413 124.267 14.9573 124.15 14.76V18.576H121.814ZM125.942 14.448C126.448 14.448 126.872 14.2373 127.214 13.816C127.56 13.3947 127.734 12.728 127.734 11.816C127.734 11.016 127.568 10.392 127.238 9.944C126.912 9.49067 126.48 9.264 125.942 9.264C125.339 9.264 124.888 9.50933 124.59 10C124.296 10.4853 124.15 11.0907 124.15 11.816C124.15 12.28 124.214 12.712 124.342 13.112C124.475 13.512 124.672 13.8347 124.934 14.08C125.2 14.3253 125.536 14.448 125.942 14.448ZM135.047 16.16C134.225 16.16 133.503 15.9893 132.879 15.648C132.26 15.3013 131.777 14.8133 131.431 14.184C131.084 13.5547 130.911 12.8133 130.911 11.96C130.911 11.1333 131.068 10.3893 131.383 9.728C131.703 9.06133 132.161 8.536 132.759 8.152C133.356 7.76267 134.079 7.568 134.927 7.568C135.769 7.568 136.476 7.74667 137.047 8.104C137.617 8.456 138.049 8.94933 138.343 9.584C138.636 10.2133 138.783 10.9413 138.783 11.768V12.4H133.223C133.223 12.8213 133.292 13.1893 133.431 13.504C133.569 13.8133 133.769 14.0533 134.031 14.224C134.297 14.3893 134.617 14.472 134.991 14.472C135.391 14.472 135.74 14.3867 136.039 14.216C136.337 14.0453 136.548 13.7653 136.671 13.376H138.775C138.679 13.9627 138.444 14.464 138.071 14.88C137.697 15.296 137.244 15.6133 136.711 15.832C136.177 16.0507 135.623 16.16 135.047 16.16ZM133.223 11.008H136.599C136.599 10.6773 136.535 10.3733 136.407 10.096C136.284 9.81867 136.097 9.6 135.847 9.44C135.601 9.28 135.292 9.2 134.919 9.2C134.561 9.2 134.255 9.288 133.999 9.464C133.748 9.63467 133.553 9.85867 133.415 10.136C133.281 10.4133 133.217 10.704 133.223 11.008ZM140.18 16V7.728H142.428V9.688C142.561 9.26667 142.748 8.89867 142.988 8.584C143.233 8.264 143.529 8.016 143.876 7.84C144.222 7.65867 144.614 7.568 145.052 7.568C145.126 7.568 145.196 7.57333 145.26 7.584C145.329 7.58933 145.38 7.6 145.412 7.616V9.84C145.364 9.81867 145.305 9.80533 145.236 9.8C145.172 9.79467 145.113 9.78933 145.06 9.784C144.601 9.74667 144.209 9.76 143.884 9.824C143.558 9.888 143.294 9.99733 143.092 10.152C142.889 10.3067 142.742 10.496 142.652 10.72C142.561 10.944 142.516 11.1947 142.516 11.472V16H140.18Z" fill="#2D314D"/>
</g>
<defs>
<linearGradient id="paint0_linear_0_1269" x1="3.16832" y1="-7.42211" x2="-11.3291" y2="2.69908" gradientUnits="userSpaceOnUse">
<stop stop-color="#33D35E"/>
<stop offset="1" stop-color="#2AB6D9"/>
</linearGradient>
<linearGradient id="paint1_linear_0_1269" x1="7.71672" y1="-7.42211" x2="-6.7807" y2="2.69908" gradientUnits="userSpaceOnUse">
<stop stop-color="#33D35E"/>
<stop offset="1" stop-color="#2AB6D9"/>
</linearGradient>
<linearGradient id="paint2_linear_0_1269" x1="12.2651" y1="-7.42211" x2="-2.2323" y2="2.69908" gradientUnits="userSpaceOnUse">
<stop stop-color="#33D35E"/>
<stop offset="1" stop-color="#2AB6D9"/>
</linearGradient>
</defs>
</svg>
