<svg width="150" height="20" viewBox="0 0 150 20" fill="none" xmlns="http://www.w3.org/2000/svg">
<path fill-rule="evenodd" clip-rule="evenodd" d="M6.66819 0L0 19.704H3.69511L10.3633 0H6.66819Z" fill="url(#paint0_linear_5882_4)"/>
<path opacity="0.5" fill-rule="evenodd" clip-rule="evenodd" d="M11.2167 0L4.54846 19.704H8.24357L14.9118 0H11.2167Z" fill="url(#paint1_linear_5882_4)"/>
<path opacity="0.15" fill-rule="evenodd" clip-rule="evenodd" d="M15.765 0L9.0968 19.704H12.7919L19.4601 0H15.765Z" fill="url(#paint2_linear_5882_4)"/>
<path d="M23.5183 16V4.432C23.577 4.432 23.7396 4.432 24.0063 4.432C24.2783 4.432 24.5956 4.432 24.9583 4.432C25.3263 4.432 25.6916 4.43467 26.0543 4.44C26.4223 4.44 26.729 4.44267 26.9743 4.448C28.377 4.48 29.521 4.73067 30.4063 5.2C31.2916 5.66933 31.9396 6.32533 32.3503 7.168C32.7663 8.01067 32.9743 9.008 32.9743 10.16C32.9743 11.36 32.7556 12.3973 32.3183 13.272C31.881 14.1413 31.2116 14.8133 30.3103 15.288C29.4143 15.7627 28.2756 16 26.8943 16H23.5183ZM25.8703 14.112H26.9423C27.6036 14.112 28.2036 13.984 28.7423 13.728C29.2863 13.472 29.721 13.0533 30.0463 12.472C30.3716 11.8907 30.5343 11.1147 30.5343 10.144C30.5343 9.24267 30.3903 8.512 30.1023 7.952C29.8143 7.38667 29.4036 6.97333 28.8703 6.712C28.337 6.45067 27.705 6.32 26.9743 6.32H25.8703V14.112ZM34.4522 16V7.728H36.7002V9.688C36.8335 9.26667 37.0202 8.89867 37.2602 8.584C37.5055 8.264 37.8015 8.016 38.1482 7.84C38.4949 7.65867 38.8869 7.568 39.3242 7.568C39.3989 7.568 39.4682 7.57333 39.5322 7.584C39.6015 7.58933 39.6522 7.6 39.6842 7.616V9.84C39.6362 9.81867 39.5775 9.80533 39.5082 9.8C39.4442 9.79467 39.3855 9.78933 39.3322 9.784C38.8735 9.74667 38.4815 9.76 38.1562 9.824C37.8309 9.888 37.5669 9.99733 37.3642 10.152C37.1615 10.3067 37.0149 10.496 36.9242 10.72C36.8335 10.944 36.7882 11.1947 36.7882 11.472V16H34.4522ZM44.5446 16.16C43.7233 16.16 43.0006 15.9893 42.3766 15.648C41.7579 15.3013 41.2753 14.8133 40.9286 14.184C40.5819 13.5547 40.4086 12.8133 40.4086 11.96C40.4086 11.1333 40.5659 10.3893 40.8806 9.728C41.2006 9.06133 41.6593 8.536 42.2566 8.152C42.8539 7.76267 43.5766 7.568 44.4246 7.568C45.2673 7.568 45.9739 7.74667 46.5446 8.104C47.1153 8.456 47.5473 8.94933 47.8406 9.584C48.1339 10.2133 48.2806 10.9413 48.2806 11.768V12.4H42.7206C42.7206 12.8213 42.7899 13.1893 42.9286 13.504C43.0673 13.8133 43.2673 14.0533 43.5286 14.224C43.7953 14.3893 44.1153 14.472 44.4886 14.472C44.8886 14.472 45.2379 14.3867 45.5366 14.216C45.8353 14.0453 46.0459 13.7653 46.1686 13.376H48.2726C48.1766 13.9627 47.9419 14.464 47.5686 14.88C47.1953 15.296 46.7419 15.6133 46.2086 15.832C45.6753 16.0507 45.1206 16.16 44.5446 16.16ZM42.7206 11.008H46.0966C46.0966 10.6773 46.0326 10.3733 45.9046 10.096C45.7819 9.81867 45.5953 9.6 45.3446 9.44C45.0993 9.28 44.7899 9.2 44.4166 9.2C44.0593 9.2 43.7526 9.288 43.4966 9.464C43.2459 9.63467 43.0513 9.85867 42.9126 10.136C42.7793 10.4133 42.7153 10.704 42.7206 11.008ZM52.0868 16.16C51.5641 16.16 51.0894 16.0613 50.6628 15.864C50.2414 15.6667 49.9081 15.3813 49.6628 15.008C49.4174 14.6293 49.2948 14.1707 49.2948 13.632C49.2948 12.7253 49.6334 12.0373 50.3108 11.568C50.9881 11.0933 52.0574 10.848 53.5188 10.832L54.5588 10.816V10.32C54.5588 9.94133 54.4468 9.65067 54.2228 9.448C54.0041 9.24 53.6601 9.13867 53.1908 9.144C52.8548 9.14933 52.5321 9.22933 52.2228 9.384C51.9188 9.53867 51.7081 9.808 51.5908 10.192H49.6468C49.6788 9.59467 49.8521 9.104 50.1668 8.72C50.4868 8.33067 50.9161 8.04267 51.4548 7.856C51.9934 7.664 52.6094 7.568 53.3028 7.568C54.1454 7.568 54.8228 7.67467 55.3348 7.888C55.8468 8.096 56.2174 8.39733 56.4468 8.792C56.6814 9.18133 56.7988 9.64533 56.7988 10.184V16H54.8468L54.6548 14.576C54.3721 15.1733 54.0174 15.5867 53.5908 15.816C53.1694 16.0453 52.6681 16.16 52.0868 16.16ZM52.8788 14.624C53.0868 14.624 53.2894 14.5867 53.4868 14.512C53.6894 14.432 53.8708 14.328 54.0308 14.2C54.1908 14.0667 54.3161 13.9173 54.4068 13.752C54.5028 13.5867 54.5534 13.416 54.5588 13.24V12.016L53.7188 12.032C53.3294 12.0373 52.9668 12.0853 52.6308 12.176C52.2948 12.2613 52.0228 12.4027 51.8148 12.6C51.6121 12.7973 51.5108 13.064 51.5108 13.4C51.5108 13.784 51.6414 14.0853 51.9028 14.304C52.1694 14.5173 52.4948 14.624 52.8788 14.624ZM58.4076 16V7.728H60.6956V8.896C60.9462 8.53333 61.2822 8.22133 61.7036 7.96C62.1302 7.69867 62.6662 7.568 63.3116 7.568C63.5942 7.568 63.8822 7.61867 64.1756 7.72C64.4689 7.82133 64.7436 7.97067 64.9996 8.168C65.2609 8.36 65.4716 8.60267 65.6316 8.896C65.8982 8.51733 66.2476 8.20267 66.6796 7.952C67.1169 7.696 67.6022 7.568 68.1356 7.568C68.4449 7.568 68.7569 7.61867 69.0716 7.72C69.3916 7.82133 69.6849 7.98667 69.9516 8.216C70.2182 8.44533 70.4316 8.752 70.5916 9.136C70.7569 9.51467 70.8396 9.984 70.8396 10.544V16H68.5036V10.832C68.5036 10.5013 68.4369 10.2373 68.3036 10.04C68.1756 9.83733 68.0102 9.69333 67.8076 9.608C67.6102 9.51733 67.3996 9.472 67.1756 9.472C66.9676 9.472 66.7569 9.51467 66.5436 9.6C66.3302 9.68 66.1489 9.81067 65.9996 9.992C65.8502 10.1733 65.7756 10.4107 65.7756 10.704V16H63.4476V10.624C63.4476 10.3733 63.3809 10.1627 63.2476 9.992C63.1142 9.82133 62.9462 9.69333 62.7436 9.608C62.5462 9.51733 62.3436 9.472 62.1356 9.472C61.9222 9.472 61.7089 9.51733 61.4956 9.608C61.2822 9.69333 61.1036 9.82933 60.9596 10.016C60.8156 10.1973 60.7436 10.4267 60.7436 10.704V16H58.4076ZM78.22 16L74.812 4.432H77.1L79.252 12.072L81.404 4.432H83.092L85.268 12.072L87.42 4.432H89.7L86.284 16H84.42L82.244 8.44L80.052 16H78.22ZM93.4397 16.16C92.629 16.16 91.9223 15.9867 91.3197 15.64C90.7223 15.2933 90.2583 14.8027 89.9277 14.168C89.6023 13.5333 89.4397 12.7813 89.4397 11.912C89.4397 11.0427 89.6023 10.2827 89.9277 9.632C90.2583 8.98133 90.7223 8.47467 91.3197 8.112C91.9223 7.74933 92.6317 7.568 93.4477 7.568C94.2637 7.568 94.9703 7.74667 95.5677 8.104C96.165 8.456 96.6263 8.95733 96.9517 9.608C97.277 10.2587 97.4397 11.0267 97.4397 11.912C97.4397 12.744 97.2797 13.48 96.9597 14.12C96.645 14.7547 96.189 15.2533 95.5917 15.616C94.9997 15.9787 94.2823 16.16 93.4397 16.16ZM93.4477 14.424C93.8583 14.424 94.189 14.304 94.4397 14.064C94.6903 13.824 94.8717 13.5093 94.9837 13.12C95.0957 12.7253 95.1517 12.296 95.1517 11.832C95.1517 11.3947 95.101 10.9813 94.9997 10.592C94.8983 10.2027 94.7223 9.888 94.4717 9.648C94.221 9.408 93.8797 9.288 93.4477 9.288C93.037 9.288 92.7037 9.40267 92.4477 9.632C92.197 9.856 92.013 10.1627 91.8957 10.552C91.7783 10.936 91.7197 11.3627 91.7197 11.832C91.7197 12.264 91.773 12.68 91.8797 13.08C91.9863 13.4747 92.165 13.7973 92.4157 14.048C92.6663 14.2987 93.0103 14.424 93.4477 14.424ZM101.389 16.144C100.781 16.144 100.298 16.072 99.9411 15.928C99.5837 15.784 99.3197 15.5947 99.1491 15.36C98.9784 15.12 98.8691 14.856 98.8211 14.568C98.7731 14.2747 98.7491 13.9787 98.7491 13.68V4.112H101.037V13.392C101.037 13.696 101.101 13.944 101.229 14.136C101.362 14.3227 101.61 14.4373 101.973 14.48L102.365 14.504V15.944C102.205 15.9973 102.042 16.0427 101.877 16.08C101.712 16.1227 101.549 16.144 101.389 16.144ZM103.651 18.576V7.728H105.995L106.003 8.92C106.126 8.72267 106.275 8.544 106.451 8.384C106.632 8.21867 106.832 8.07467 107.051 7.952C107.27 7.82933 107.507 7.736 107.763 7.672C108.019 7.60267 108.288 7.568 108.571 7.568C109.184 7.568 109.731 7.72 110.211 8.024C110.691 8.32267 111.067 8.78667 111.339 9.416C111.616 10.04 111.755 10.8347 111.755 11.8C111.755 12.8027 111.606 13.6267 111.307 14.272C111.014 14.912 110.608 15.3867 110.091 15.696C109.574 16.0053 108.99 16.16 108.339 16.16C108.072 16.16 107.822 16.1227 107.587 16.048C107.352 15.9787 107.134 15.88 106.931 15.752C106.734 15.624 106.555 15.4773 106.395 15.312C106.24 15.1413 106.104 14.9573 105.987 14.76V18.576H103.651ZM107.779 14.448C108.286 14.448 108.71 14.2373 109.051 13.816C109.398 13.3947 109.571 12.728 109.571 11.816C109.571 11.016 109.406 10.392 109.075 9.944C108.75 9.49067 108.318 9.264 107.779 9.264C107.176 9.264 106.726 9.50933 106.427 10C106.134 10.4853 105.987 11.0907 105.987 11.816C105.987 12.28 106.051 12.712 106.179 13.112C106.312 13.512 106.51 13.8347 106.771 14.08C107.038 14.3253 107.374 14.448 107.779 14.448ZM115.493 16.16C114.97 16.16 114.496 16.0613 114.069 15.864C113.648 15.6667 113.314 15.3813 113.069 15.008C112.824 14.6293 112.701 14.1707 112.701 13.632C112.701 12.7253 113.04 12.0373 113.717 11.568C114.394 11.0933 115.464 10.848 116.925 10.832L117.965 10.816V10.32C117.965 9.94133 117.853 9.65067 117.629 9.448C117.41 9.24 117.066 9.13867 116.597 9.144C116.261 9.14933 115.938 9.22933 115.629 9.384C115.325 9.53867 115.114 9.808 114.997 10.192H113.053C113.085 9.59467 113.258 9.104 113.573 8.72C113.893 8.33067 114.322 8.04267 114.861 7.856C115.4 7.664 116.016 7.568 116.709 7.568C117.552 7.568 118.229 7.67467 118.741 7.888C119.253 8.096 119.624 8.39733 119.853 8.792C120.088 9.18133 120.205 9.64533 120.205 10.184V16H118.253L118.061 14.576C117.778 15.1733 117.424 15.5867 116.997 15.816C116.576 16.0453 116.074 16.16 115.493 16.16ZM116.285 14.624C116.493 14.624 116.696 14.5867 116.893 14.512C117.096 14.432 117.277 14.328 117.437 14.2C117.597 14.0667 117.722 13.9173 117.813 13.752C117.909 13.5867 117.96 13.416 117.965 13.24V12.016L117.125 12.032C116.736 12.0373 116.373 12.0853 116.037 12.176C115.701 12.2613 115.429 12.4027 115.221 12.6C115.018 12.7973 114.917 13.064 114.917 13.4C114.917 13.784 115.048 14.0853 115.309 14.304C115.576 14.5173 115.901 14.624 116.285 14.624ZM121.814 18.576V7.728H124.158L124.166 8.92C124.288 8.72267 124.438 8.544 124.614 8.384C124.795 8.21867 124.995 8.07467 125.214 7.952C125.432 7.82933 125.67 7.736 125.926 7.672C126.182 7.60267 126.451 7.568 126.734 7.568C127.347 7.568 127.894 7.72 128.374 8.024C128.854 8.32267 129.23 8.78667 129.502 9.416C129.779 10.04 129.918 10.8347 129.918 11.8C129.918 12.8027 129.768 13.6267 129.47 14.272C129.176 14.912 128.771 15.3867 128.254 15.696C127.736 16.0053 127.152 16.16 126.502 16.16C126.235 16.16 125.984 16.1227 125.75 16.048C125.515 15.9787 125.296 15.88 125.094 15.752C124.896 15.624 124.718 15.4773 124.558 15.312C124.403 15.1413 124.267 14.9573 124.15 14.76V18.576H121.814ZM125.942 14.448C126.448 14.448 126.872 14.2373 127.214 13.816C127.56 13.3947 127.734 12.728 127.734 11.816C127.734 11.016 127.568 10.392 127.238 9.944C126.912 9.49067 126.48 9.264 125.942 9.264C125.339 9.264 124.888 9.50933 124.59 10C124.296 10.4853 124.15 11.0907 124.15 11.816C124.15 12.28 124.214 12.712 124.342 13.112C124.475 13.512 124.672 13.8347 124.934 14.08C125.2 14.3253 125.536 14.448 125.942 14.448ZM135.047 16.16C134.226 16.16 133.503 15.9893 132.879 15.648C132.26 15.3013 131.778 14.8133 131.431 14.184C131.084 13.5547 130.911 12.8133 130.911 11.96C130.911 11.1333 131.068 10.3893 131.383 9.728C131.703 9.06133 132.162 8.536 132.759 8.152C133.356 7.76267 134.079 7.568 134.927 7.568C135.77 7.568 136.476 7.74667 137.047 8.104C137.618 8.456 138.05 8.94933 138.343 9.584C138.636 10.2133 138.783 10.9413 138.783 11.768V12.4H133.223C133.223 12.8213 133.292 13.1893 133.431 13.504C133.57 13.8133 133.77 14.0533 134.031 14.224C134.298 14.3893 134.618 14.472 134.991 14.472C135.391 14.472 135.74 14.3867 136.039 14.216C136.338 14.0453 136.548 13.7653 136.671 13.376H138.775C138.679 13.9627 138.444 14.464 138.071 14.88C137.698 15.296 137.244 15.6133 136.711 15.832C136.178 16.0507 135.623 16.16 135.047 16.16ZM133.223 11.008H136.599C136.599 10.6773 136.535 10.3733 136.407 10.096C136.284 9.81867 136.098 9.6 135.847 9.44C135.602 9.28 135.292 9.2 134.919 9.2C134.562 9.2 134.255 9.288 133.999 9.464C133.748 9.63467 133.554 9.85867 133.415 10.136C133.282 10.4133 133.218 10.704 133.223 11.008ZM140.18 16V7.728H142.428V9.688C142.561 9.26667 142.748 8.89867 142.988 8.584C143.233 8.264 143.529 8.016 143.876 7.84C144.223 7.65867 144.615 7.568 145.052 7.568C145.127 7.568 145.196 7.57333 145.26 7.584C145.329 7.58933 145.38 7.6 145.412 7.616V9.84C145.364 9.81867 145.305 9.80533 145.236 9.8C145.172 9.79467 145.113 9.78933 145.06 9.784C144.601 9.74667 144.209 9.76 143.884 9.824C143.559 9.888 143.295 9.99733 143.092 10.152C142.889 10.3067 142.743 10.496 142.652 10.72C142.561 10.944 142.516 11.1947 142.516 11.472V16H140.18Z" fill="white"/>
<defs>
<linearGradient id="paint0_linear_5882_4" x1="3.16832" y1="-7.42211" x2="-11.3291" y2="2.69908" gradientUnits="userSpaceOnUse">
<stop stop-color="#33D35E"/>
<stop offset="1" stop-color="#2AB6D9"/>
</linearGradient>
<linearGradient id="paint1_linear_5882_4" x1="7.71678" y1="-7.42211" x2="-6.78064" y2="2.69908" gradientUnits="userSpaceOnUse">
<stop stop-color="#33D35E"/>
<stop offset="1" stop-color="#2AB6D9"/>
</linearGradient>
<linearGradient id="paint2_linear_5882_4" x1="12.2651" y1="-7.42211" x2="-2.2323" y2="2.69908" gradientUnits="userSpaceOnUse">
<stop stop-color="#33D35E"/>
<stop offset="1" stop-color="#2AB6D9"/>
</linearGradient>
</defs>
</svg>
